<?xml version="1.0" encoding="UTF-8" standalone="no"?>
<svg
   xmlns:dc="http://purl.org/dc/elements/1.1/"
   xmlns:cc="http://creativecommons.org/ns#"
   xmlns:rdf="http://www.w3.org/1999/02/22-rdf-syntax-ns#"
   xmlns:svg="http://www.w3.org/2000/svg"
   xmlns="http://www.w3.org/2000/svg"
   xmlns:sodipodi="http://sodipodi.sourceforge.net/DTD/sodipodi-0.dtd"
   xmlns:inkscape="http://www.inkscape.org/namespaces/inkscape"
   width="228"
   height="228"
   version="1.1"
   viewBox="0 0 60.325 60.325"
   id="svg4"
   sodipodi:docname="Support_icon.svg"
   inkscape:version="1.0.1 (3bc2e813f5, 2020-09-07)">
  <metadata
     id="metadata10">
    <rdf:RDF>
      <cc:Work
         rdf:about="">
        <dc:format>image/svg+xml</dc:format>
        <dc:type
           rdf:resource="http://purl.org/dc/dcmitype/StillImage" />
      </cc:Work>
    </rdf:RDF>
  </metadata>
  <defs
     id="defs8" />
  <sodipodi:namedview
     pagecolor="#ffffff"
     bordercolor="#666666"
     borderopacity="1"
     objecttolerance="10"
     gridtolerance="10"
     guidetolerance="10"
     inkscape:pageopacity="0"
     inkscape:pageshadow="2"
     inkscape:window-width="1920"
     inkscape:window-height="1057"
     id="namedview6"
     showgrid="false"
     inkscape:zoom="3.9035088"
     inkscape:cx="114"
     inkscape:cy="114"
     inkscape:window-x="-8"
     inkscape:window-y="-8"
     inkscape:window-maximized="1"
     inkscape:current-layer="svg4" />
  <path
     d="m40.777 54.38c0 1.8962-1.6187 4.3473-3.6536 4.3473h-13.922c-2.0349 0-3.6536-2.4511-3.6536-4.3473v-13.597h-13.597c-1.8962 0-4.3473-1.6187-4.3473-3.6536v-13.922c0-2.0349 2.4511-3.6536 4.3473-3.6536h13.597v-13.597c0-1.8962 1.6187-4.3473 3.6536-4.3473h13.922c2.0349 0 3.6536 2.4511 3.6536 4.3473v13.597h13.597c1.8962 0 4.3473 1.6187 4.3473 3.6536v13.922c0 2.0349-2.4511 3.6536-4.3473 3.6536h-13.597z"
     id="path2"
     style="fill:#ffffff;fill-opacity:1;stroke:#000000;stroke-opacity:1"
     inkscape:export-xdpi="150"
     inkscape:export-ydpi="150" />
</svg>
